<svg width="16" height="16" viewBox="0 0 16 16" fill="none" xmlns="http://www.w3.org/2000/svg">
<path d="M13.1111 10.7365C12.7015 10.3664 12.1723 10.1621 11.6209 10.1621C10.9935 10.1621 10.3926 10.4295 9.97225 10.894L9.48853 11.4283C9.2822 11.6567 9.12808 11.9195 9.03021 12.2097L8.98706 12.3389L8.86008 12.2889C6.70383 11.4376 4.94666 9.82497 3.91244 7.74817L3.84399 7.6109L3.99118 7.56663C4.37782 7.45032 4.72539 7.22999 4.99718 6.9294L5.48043 6.39534C5.87897 5.95489 6.08182 5.38584 6.05182 4.79299C6.02231 4.20013 5.76327 3.65417 5.3232 3.25625L4.5074 2.51884C4.09784 2.14819 3.56886 1.94446 3.0174 1.94446C2.39007 1.94446 1.78906 2.21081 1.36845 2.67556L0.885079 3.2106C0.823451 3.27893 0.763683 3.35383 0.707509 3.43517L0.685312 3.45972C0.22899 3.84995 -0.159241 4.79942 0.0657936 5.96218C1.10456 11.3714 5.66133 15.4927 11.1477 15.9848C11.8675 16.0504 12.5449 15.9016 13.0585 15.586C13.2642 15.4671 13.4455 15.321 13.6013 15.1485L14.0847 14.6138C14.9066 13.7049 14.8359 12.2968 13.9273 11.475L13.1111 10.7365Z" fill="#505158"/>
<path d="M8.229 0.000317449C7.94281 0.000317449 7.71094 0.232447 7.71094 0.518636C7.71094 0.804457 7.94294 1.03645 8.229 1.03645C11.8602 1.03645 14.8146 3.99087 14.8146 7.62209C14.8146 7.90791 15.0466 8.1399 15.3328 8.1399C15.6189 8.1399 15.8506 7.90814 15.8506 7.62209C15.8506 3.41916 12.4315 0 8.22919 0L8.229 0.000317449Z" fill="#505158"/>
<path d="M12.2791 7.70562C12.2791 7.99181 12.5111 8.22368 12.7972 8.22368C13.0832 8.22368 13.3152 7.99168 13.3152 7.70562C13.3152 4.85509 10.996 2.53577 8.14476 2.53577C7.85869 2.53577 7.62695 2.76752 7.62695 3.05348C7.62695 3.33967 7.85871 3.57155 8.14476 3.57155C10.4246 3.57142 12.2788 5.42585 12.2788 7.70559L12.2791 7.70562Z" fill="#505158"/>
</svg>
