<svg width="18" height="18" viewBox="0 0 18 18" fill="none" xmlns="http://www.w3.org/2000/svg">
<path fill-rule="evenodd" clip-rule="evenodd" d="M8.50116 3.27362L5.15025 4.25341L3.63998 3.49828L3.63298 3.49482C3.32544 3.34503 2.97157 3.32123 2.64674 3.42849C2.32213 3.53567 2.05215 3.76527 1.89423 4.06844L0.16574 7.37786C0.0845108 7.53167 0.0348332 7.70017 0.0196381 7.87347C0.00435067 8.04782 0.0242779 8.22347 0.0782345 8.38996C0.132191 8.55646 0.219076 8.7104 0.333722 8.84265C0.447424 8.9738 0.58613 9.08095 0.741714 9.15784L2.40946 9.99509L6.19233 12.9482C6.33069 13.0591 6.49013 13.1409 6.66103 13.1885C6.6675 13.1904 6.67399 13.1921 6.68051 13.1937L10.7586 14.2132C10.7665 14.2152 10.7743 14.217 10.7822 14.2187C10.995 14.2647 11.2158 14.2584 11.4256 14.2004C11.6355 14.1424 11.8282 14.0345 11.9872 13.8858C11.9933 13.88 11.9993 13.8742 12.0052 13.8683L14.5927 11.2808C14.6069 11.2666 14.6206 11.2518 14.6336 11.2365L15.6591 10.0315L17.2585 9.23505C17.415 9.15693 17.5549 9.04804 17.6689 8.91526C17.7829 8.78247 17.8692 8.62823 17.9227 8.46161C17.9762 8.29498 17.9958 8.11934 17.9804 7.94503C17.9651 7.7715 17.9154 7.60277 17.8343 7.44866L17.8331 7.44653L16.1063 4.14015L16.1057 4.13898C15.9469 3.83368 15.6739 3.60341 15.3462 3.4983C15.0192 3.3934 14.6641 3.42161 14.3578 3.57671L12.7603 4.37542L11.6934 4.3755L9.40827 3.33862L9.40725 3.33816C9.12375 3.21003 8.80395 3.18677 8.5049 3.27253L8.50116 3.27362ZM9.07418 4.83423L8.85258 4.73367L5.57173 5.69298L3.76635 9.15141L7.09736 11.7517L11.0198 12.7324L12.9114 10.8408L10.9755 9.43296L10.5187 9.77562L10.5173 9.77666C9.99776 10.1644 9.36688 10.3739 8.71865 10.3739C8.07042 10.3739 7.43955 10.1644 6.92005 9.77666L6.9151 9.77297L6.53543 9.48467C6.38668 9.37157 6.26326 9.22788 6.17408 9.06367C6.0849 8.89946 6.03162 8.71818 6.01776 8.53183C6.0039 8.34548 6.02977 8.15831 6.09368 7.98271C6.15758 7.80711 6.25805 7.64708 6.38844 7.51323L6.39603 7.50554L9.07418 4.83423ZM4.04433 5.37751L2.48914 8.35668L1.58409 7.90232L3.13916 4.92492L4.04433 5.37751ZM16.4183 7.97772L15.5113 8.42938L13.9559 5.45468L14.8635 5.00087L16.4183 7.97772ZM11.5473 5.87551L12.4832 5.87544L14.2884 9.32773L13.9416 9.73523L11.4098 7.89405C11.1435 7.70041 10.782 7.70307 10.5187 7.90061L9.62005 8.57457L9.61939 8.57506C9.35917 8.76906 9.04325 8.87386 8.71865 8.87386C8.3947 8.87386 8.0794 8.76948 7.81948 8.57622L7.60779 8.4155L10.1542 5.87561L11.5143 5.87551C11.5157 5.87554 11.5171 5.87557 11.5184 5.87559C11.5281 5.87575 11.5377 5.87572 11.5473 5.87551Z" fill="#269851"/>
<path d="M4.4288 12.3707C4.11587 12.0993 3.64219 12.1329 3.37081 12.4459C3.09942 12.7588 3.13309 13.2325 3.44602 13.5039L5.03182 14.8792C5.18894 15.018 5.37798 15.1159 5.58205 15.1639L7.6913 15.6965C8.09291 15.7979 8.50068 15.5545 8.60209 15.1529C8.70349 14.7513 8.46012 14.3435 8.05851 14.2421L5.9822 13.7179L4.4288 12.3707Z" fill="#269851"/>
</svg>
