<svg width="26" height="26" viewBox="0 0 26 26" fill="none" xmlns="http://www.w3.org/2000/svg">
<path fill-rule="evenodd" clip-rule="evenodd" d="M14.2289 0.517628C13.555 -0.172543 12.445 -0.172543 11.771 0.517628L9.51745 2.82556C9.18928 3.16164 8.73778 3.34866 8.26808 3.34307L5.04259 3.30465C4.07803 3.29316 3.29316 4.07803 3.30465 5.04259L3.34307 8.26808C3.34866 8.73778 3.16164 9.18928 2.82556 9.51745L0.517628 11.771C-0.172543 12.445 -0.172543 13.555 0.517628 14.2289L2.82556 16.4825C3.16164 16.8106 3.34866 17.2621 3.34307 17.7318L3.30465 20.9573C3.29316 21.9219 4.07803 22.7068 5.04259 22.6953L8.26808 22.6569C8.73778 22.6513 9.18928 22.8383 9.51745 23.1744L11.771 25.4823C12.445 26.1725 13.555 26.1725 14.2289 25.4823L16.4825 23.1744C16.8106 22.8383 17.2621 22.6513 17.7318 22.6569L20.9573 22.6953C21.9219 22.7068 22.7068 21.9219 22.6953 20.9573L22.6569 17.7318C22.6513 17.2621 22.8383 16.8106 23.1744 16.4825L25.4823 14.2289C26.1725 13.555 26.1725 12.445 25.4823 11.771L23.1744 9.51745C22.8383 9.18928 22.6513 8.73778 22.6569 8.26808L22.6953 5.04259C22.7068 4.07803 21.9219 3.29316 20.9573 3.30465L17.7318 3.34307C17.2621 3.34866 16.8106 3.16164 16.4825 2.82556L14.2289 0.517628ZM18.1745 11.4308C18.7553 10.7407 18.6911 9.68897 18.0311 9.08167C17.3712 8.47438 16.3653 8.54151 15.7845 9.23162L12.1225 13.583L10.0197 11.8097C9.33537 11.2326 8.33322 11.3449 7.78134 12.0605C7.22946 12.7761 7.33683 13.824 8.02116 14.401L10.9153 16.8415C11.8001 17.5877 13.09 17.4724 13.841 16.5801L18.1745 11.4308Z" fill="#269851"/>
</svg>
