<svg width="26" height="26" viewBox="0 0 26 26" fill="none" xmlns="http://www.w3.org/2000/svg">
<path d="M11.0402 0C10.03 0 9.21105 0.818943 9.21105 1.82915V2.87437C9.21105 3.88457 10.03 4.70352 11.0402 4.70352H14.9598C15.97 4.70352 16.7889 3.88457 16.7889 2.87437V1.82915C16.7889 0.818943 15.97 0 14.9598 0H11.0402Z" fill="#269851"/>
<path fill-rule="evenodd" clip-rule="evenodd" d="M4.24623 2.35176H6.8593V4.11558C6.8593 5.34225 7.85372 6.33668 9.0804 6.33668H16.9196C18.1463 6.33668 19.1407 5.34225 19.1407 4.11558V2.35176H21.7538C24.0989 2.35176 26 4.25287 26 6.59799V21.5578C26 23.9029 24.0989 25.804 21.7538 25.804H4.24623C1.90111 25.804 0 23.9029 0 21.5578V6.59799C0 4.25287 1.9011 2.35176 4.24623 2.35176ZM6.33668 10.9095C5.61511 10.9095 5.03015 11.4945 5.03015 12.2161V12.7387C5.03015 13.4603 5.61511 14.0452 6.33668 14.0452H19.598C20.3196 14.0452 20.9045 13.4603 20.9045 12.7387V12.2161C20.9045 11.4945 20.3196 10.9095 19.598 10.9095H6.33668ZM5.03015 17.7688C5.03015 17.0473 5.61511 16.4623 6.33668 16.4623H13.9799C14.7015 16.4623 15.2864 17.0473 15.2864 17.7688V18.2915C15.2864 19.013 14.7015 19.598 13.9799 19.598H6.33668C5.61511 19.598 5.03015 19.013 5.03015 18.2915V17.7688Z" fill="#269851"/>
</svg>
