<svg width="18" height="18" viewBox="0 0 18 18" fill="none" xmlns="http://www.w3.org/2000/svg">
<path fill-rule="evenodd" clip-rule="evenodd" d="M5.72963 4.04213C6.59699 3.17478 7.77337 2.6875 9 2.6875C10.2266 2.6875 11.403 3.17478 12.2704 4.04213C13.1377 4.90949 13.625 6.08587 13.625 7.3125C13.625 9.4837 12.4069 11.5034 11.0579 13.0548C10.3956 13.8164 9.73075 14.4317 9.23126 14.8562C9.14926 14.9259 9.07192 14.9903 9 15.0492C8.92808 14.9903 8.85074 14.9259 8.76874 14.8562C8.26925 14.4317 7.6044 13.8164 6.94211 13.0548C5.5931 11.5034 4.375 9.4837 4.375 7.3125C4.375 6.08587 4.86228 4.90949 5.72963 4.04213ZM8.42599 17.1313C8.42627 17.1315 8.42654 17.1317 9 16.3125L8.42654 17.1317C8.77086 17.3728 9.22914 17.3728 9.57346 17.1317L9 16.3125C9.57346 17.1317 9.57373 17.1315 9.57401 17.1313L9.57469 17.1309L9.57643 17.1296L9.58145 17.1261L9.5975 17.1147C9.61083 17.1052 9.62937 17.0918 9.65278 17.0747C9.69959 17.0406 9.7659 16.9914 9.84894 16.9279C10.0149 16.8011 10.2483 16.6167 10.5266 16.3801C11.0817 15.9082 11.8231 15.2227 12.5671 14.3671C14.0306 12.6841 15.625 10.2038 15.625 7.3125C15.625 5.55544 14.927 3.87035 13.6846 2.62792C12.4422 1.38549 10.7571 0.6875 9 0.6875C7.24294 0.6875 5.55785 1.38549 4.31542 2.62792C3.07299 3.87035 2.375 5.55544 2.375 7.3125C2.375 10.2038 3.9694 12.6841 5.43289 14.3671C6.17686 15.2227 6.91825 15.9082 7.47345 16.3801C7.75174 16.6167 7.98509 16.8011 8.15106 16.9279C8.2341 16.9914 8.30041 17.0406 8.34722 17.0747C8.37063 17.0918 8.38917 17.1052 8.4025 17.1147L8.41855 17.1261L8.42357 17.1296L8.42531 17.1309L8.42599 17.1313ZM7.75 7.3125C7.75 6.62214 8.30964 6.0625 9 6.0625C9.69036 6.0625 10.25 6.62214 10.25 7.3125C10.25 8.00286 9.69036 8.5625 9 8.5625C8.30964 8.5625 7.75 8.00286 7.75 7.3125ZM9 4.0625C7.20507 4.0625 5.75 5.51757 5.75 7.3125C5.75 9.10743 7.20507 10.5625 9 10.5625C10.7949 10.5625 12.25 9.10743 12.25 7.3125C12.25 5.51757 10.7949 4.0625 9 4.0625Z" fill="#269851"/>
</svg>
