<svg width="16" height="17" viewBox="0 0 16 17" fill="none" xmlns="http://www.w3.org/2000/svg">
<path d="M13.1333 11.1005C12.7442 10.7488 12.2414 10.5548 11.7175 10.5548C11.1216 10.5548 10.5507 10.8088 10.1514 11.2501L9.69184 11.7577C9.49582 11.9747 9.34941 12.2243 9.25643 12.5001L9.21544 12.6228L9.09481 12.5752C7.04637 11.7665 5.37706 10.2345 4.39455 8.26157L4.32953 8.13117L4.46935 8.08911C4.83667 7.97861 5.16685 7.7693 5.42506 7.48374L5.88414 6.97638C6.26276 6.55795 6.45546 6.01736 6.42696 5.45415C6.39893 4.89094 6.15284 4.37227 5.73477 3.99425L4.95977 3.29371C4.57068 2.94159 4.06815 2.74805 3.54426 2.74805C2.9483 2.74805 2.37734 3.00108 1.97776 3.44259L1.51856 3.95089C1.46001 4.01579 1.40323 4.08695 1.34987 4.16422L1.32878 4.18755C0.895275 4.55827 0.526456 5.46026 0.740238 6.56488C1.72706 11.7036 6.056 15.6189 11.268 16.0863C11.9519 16.1486 12.5954 16.0073 13.0833 15.7075C13.2788 15.5945 13.451 15.4558 13.5989 15.2919L14.0582 14.7839C14.839 13.9205 14.7719 12.5827 13.9086 11.8021L13.1333 11.1005Z" fill="#269851"/>
<path d="M8.49607 0.900692C8.22418 0.900692 8.00391 1.12121 8.00391 1.39309C8.00391 1.66462 8.22431 1.88501 8.49607 1.88501C11.9457 1.88501 14.7524 4.69172 14.7524 8.14137C14.7524 8.4129 14.9728 8.63329 15.2447 8.63329C15.5165 8.63329 15.7366 8.41312 15.7366 8.14137C15.7366 4.1486 12.4884 0.900391 8.49625 0.900391L8.49607 0.900692Z" fill="#269851"/>
<path d="M12.3414 8.21995C12.3414 8.49184 12.5618 8.71211 12.8336 8.71211C13.1054 8.71211 13.3258 8.49171 13.3258 8.21995C13.3258 5.51195 11.1224 3.30859 8.41379 3.30859C8.14203 3.30859 7.92188 3.52876 7.92188 3.80042C7.92188 4.07231 8.14204 4.29258 8.41379 4.29258C10.5797 4.29247 12.3411 6.05417 12.3411 8.21992L12.3414 8.21995Z" fill="#269851"/>
</svg>
