<svg width="26" height="26" viewBox="0 0 26 26" fill="none" xmlns="http://www.w3.org/2000/svg">
<path d="M14.0791 1.83101V1.08716C14.0791 0.486799 13.594 0 12.9957 0C12.3975 0 11.9124 0.486822 11.9124 1.08716V1.83037C5.32668 2.36269 0.185457 7.71925 0.000328776 14.4747C-0.0105526 14.9203 0.249469 15.3225 0.661161 15.5074C1.06195 15.6812 1.53869 15.5837 1.85265 15.2684C3.60771 13.5074 6.48927 13.5074 8.26597 15.2793C8.6883 15.6924 9.37088 15.6924 9.79343 15.2684C10.3869 14.6803 11.1205 14.2844 11.9126 14.0881V22.4701C11.9126 24.4165 13.4904 26 15.4302 26C17.3698 26 18.9478 24.4167 18.9478 22.4701V21.9059C18.9478 21.3056 18.4627 20.8188 17.8644 20.8188C17.2662 20.8188 16.781 21.3056 16.781 21.9059V22.4701C16.781 23.2174 16.1749 23.8257 15.4302 23.8257C14.6855 23.8257 14.0793 23.2174 14.0793 22.4701V14.0899C14.8725 14.2869 15.6041 14.6816 16.1958 15.268C16.6181 15.692 17.3116 15.703 17.7232 15.2789C19.4998 13.507 22.3814 13.507 24.158 15.2789C24.4477 15.5697 24.8807 15.6882 25.3495 15.5073C25.7505 15.3224 26.0106 14.9202 25.9997 14.4746C25.8045 7.72378 20.6599 2.36952 14.0795 1.83083L14.0791 1.83101Z" fill="white"/>
</svg>
