<svg width="12" height="16" viewBox="0 0 12 16" fill="none" xmlns="http://www.w3.org/2000/svg">
<path fill-rule="evenodd" clip-rule="evenodd" d="M3.17157 3.67157C3.92172 2.92143 4.93913 2.5 6 2.5C7.06087 2.5 8.07828 2.92143 8.82843 3.67157C9.57857 4.42172 10 5.43913 10 6.5C10 8.38995 8.93815 10.1596 7.74539 11.5313C7.16123 12.2031 6.5745 12.7461 6.1336 13.1209C6.08732 13.1602 6.04273 13.1976 6 13.2331C5.95727 13.1976 5.91268 13.1602 5.8664 13.1209C5.4255 12.7461 4.83877 12.2031 4.25461 11.5313C3.06185 10.1596 2 8.38995 2 6.5C2 5.43913 2.42143 4.42172 3.17157 3.67157ZM5.426 15.3189C5.42628 15.319 5.42654 15.3192 6 14.5L5.42654 15.3192C5.77086 15.5603 6.22914 15.5603 6.57346 15.3192L6 14.5C6.57346 15.3192 6.57372 15.319 6.574 15.3189L6.57466 15.3184L6.57632 15.3172L6.58099 15.3139L6.59571 15.3035C6.60786 15.2948 6.62464 15.2827 6.64576 15.2673C6.68799 15.2365 6.74759 15.1923 6.82208 15.1353C6.97096 15.0216 7.1799 14.8564 7.4289 14.6448C7.9255 14.2226 8.58877 13.6094 9.25461 12.8437C10.5618 11.3404 12 9.11005 12 6.5C12 4.9087 11.3679 3.38258 10.2426 2.25736C9.11742 1.13214 7.5913 0.5 6 0.5C4.4087 0.5 2.88258 1.13214 1.75736 2.25736C0.632141 3.38258 0 4.9087 0 6.5C0 9.11005 1.43815 11.3404 2.74539 12.8437C3.41123 13.6094 4.0745 14.2226 4.5711 14.6448C4.8201 14.8564 5.02904 15.0216 5.17792 15.1353C5.25241 15.1923 5.31201 15.2365 5.35424 15.2673C5.37536 15.2827 5.39214 15.2948 5.40429 15.3035L5.41901 15.3139L5.42368 15.3172L5.42534 15.3184L5.426 15.3189ZM4.75 6.5C4.75 5.80964 5.30964 5.25 6 5.25C6.69036 5.25 7.25 5.80964 7.25 6.5C7.25 7.19036 6.69036 7.75 6 7.75C5.30964 7.75 4.75 7.19036 4.75 6.5ZM6 3.75C4.48122 3.75 3.25 4.98122 3.25 6.5C3.25 8.01878 4.48122 9.25 6 9.25C7.51878 9.25 8.75 8.01878 8.75 6.5C8.75 4.98122 7.51878 3.75 6 3.75Z" fill="white"/>
</svg>
