<svg width="16" height="14" viewBox="0 0 16 14" fill="none" xmlns="http://www.w3.org/2000/svg">
<path d="M15.92 6.62019C15.8724 6.49743 15.801 6.38529 15.71 6.29019L10.71 1.29019C10.6168 1.19695 10.5061 1.12299 10.3842 1.07253C10.2624 1.02207 10.1319 0.996094 10 0.996094C9.7337 0.996094 9.4783 1.10188 9.29 1.29019C9.19676 1.38342 9.1228 1.49411 9.07234 1.61594C9.02188 1.73776 8.99591 1.86833 8.99591 2.00019C8.99591 2.26649 9.1017 2.52188 9.29 2.71019L12.59 6.00019H1C0.734784 6.00019 0.48043 6.10554 0.292893 6.29308C0.105357 6.48062 0 6.73497 0 7.00019C0 7.2654 0.105357 7.51976 0.292893 7.70729C0.48043 7.89483 0.734784 8.00019 1 8.00019H12.59L9.29 11.2902C9.19627 11.3831 9.12188 11.4937 9.07111 11.6156C9.02034 11.7375 8.9942 11.8682 8.9942 12.0002C8.9942 12.1322 9.02034 12.2629 9.07111 12.3848C9.12188 12.5066 9.19627 12.6172 9.29 12.7102C9.38296 12.8039 9.49356 12.8783 9.61542 12.9291C9.73728 12.9798 9.86799 13.006 10 13.006C10.132 13.006 10.2627 12.9798 10.3846 12.9291C10.5064 12.8783 10.617 12.8039 10.71 12.7102L15.71 7.71019C15.801 7.61508 15.8724 7.50294 15.92 7.38019C16.02 7.13672 16.02 6.86365 15.92 6.62019Z" fill="#269851"/>
</svg>
