<svg width="26" height="26" viewBox="0 0 26 26" fill="none" xmlns="http://www.w3.org/2000/svg">
<path d="M13.0002 0C5.8205 0 0 5.82004 0 13.0002C0 20.18 5.82004 26.0005 13.0002 26.0005C20.18 26.0003 26 20.18 26 13.0002C26 5.8205 20.18 0 13.0002 0ZM14.3814 18.9754C14.3814 20.028 13.5703 20.8389 12.474 20.8389C11.3775 20.8389 10.5662 20.028 10.5662 18.9754L10.5661 18.9315C10.5661 17.8788 11.3771 17.0674 12.4738 17.0674C13.5702 17.0674 14.3812 17.8788 14.3812 18.9315L14.3814 18.9754ZM18.2194 9.74309C18.2194 12.5279 16.2895 13.6689 13.8996 14.1512L13.8337 14.947C13.7456 15.5168 13.285 16.0213 12.6492 16.0213H11.9146C11.2784 16.0213 10.818 15.5391 10.7306 14.947V13.0547C10.6208 12.3309 11.3771 11.8263 12.0795 11.7387C13.9868 11.4978 14.8641 10.9057 14.8641 9.83128V9.78738C14.8641 8.80076 14.1185 8.23046 12.8464 8.23046C11.9037 8.23046 11.0923 8.5158 10.303 9.10772C10.0396 9.30508 9.68881 9.45872 9.31586 9.45872C8.48273 9.45872 7.78068 8.75654 7.78068 7.92391C7.78068 7.50688 7.95627 7.06825 8.35117 6.73938C9.51336 5.77487 10.9823 5.16031 12.9119 5.16031C16.07 5.16031 18.2192 6.78307 18.2192 9.69941L18.2194 9.74309Z" fill="#269851"/>
</svg>
